<?xml version="1.0" encoding="us-ascii" standalone="no"?><svg xmlns="http://www.w3.org/2000/svg" xmlns:xlink="http://www.w3.org/1999/xlink" contentStyleType="text/css" height="295px" preserveAspectRatio="none" style="width:534px;height:295px;background:#FFFFFF;" version="1.1" viewBox="0 0 534 295" width="534px" zoomAndPan="magnify"><defs/><g><ellipse cx="181.5" cy="20" fill="#222222" rx="10" ry="10" style="stroke:#222222;stroke-width:1.0;"/><path d="M286,45.0244 L286,71.9609 L266,75.9609 L286,79.9609 L286,106.8975 A0,0 0 0 0 286,106.8975 L522,106.8975 A0,0 0 0 0 522,106.8975 L522,55.0244 L512,45.0244 L286,45.0244 A0,0 0 0 0 286,45.0244 " fill="#FEFFDD" style="stroke:#181818;stroke-width:0.5;"/><path d="M512,45.0244 L512,55.0244 L522,55.0244 L512,45.0244 " fill="#FEFFDD" style="stroke:#181818;stroke-width:0.5;"/><text fill="#000000" font-family="sans-serif" font-size="13" lengthAdjust="spacing" textLength="198" x="292" y="64.0527">Der vorl&#228;ufige Eintrag kann sowohl</text><text fill="#000000" font-family="sans-serif" font-size="13" lengthAdjust="spacing" textLength="215" x="292" y="81.3438">von einem B&#252;rger als auch von einem</text><text fill="#000000" font-family="sans-serif" font-size="13" lengthAdjust="spacing" textLength="157" x="292" y="98.6348">Mitarbeiter erzeugt werden.</text><rect fill="#F1F1F1" height="51.9219" rx="12.5" ry="12.5" style="stroke:#181818;stroke-width:0.5;" width="169" x="97" y="50"/><text fill="#000000" font-family="sans-serif" font-size="12" lengthAdjust="spacing" textLength="149" x="107" y="72.9492">Erzeugen eines vorl&#228;ufigen</text><text fill="#000000" font-family="sans-serif" font-size="12" lengthAdjust="spacing" textLength="131" x="107" y="88.9102">Berufskartei-Eintrags</text><polygon fill="#F1F1F1" points="111,126.8975,252,126.8975,264,138.8975,252,150.8975,111,150.8975,99,138.8975,111,126.8975" style="stroke:#181818;stroke-width:0.5;"/><text fill="#000000" font-family="sans-serif" font-size="11" lengthAdjust="spacing" textLength="141" x="111" y="143.4521">Vorl&#228;ufiger Eintrag ist valide?</text><text fill="#000000" font-family="sans-serif" font-size="11" lengthAdjust="spacing" textLength="13" x="86" y="136.1367">JA</text><text fill="#000000" font-family="sans-serif" font-size="11" lengthAdjust="spacing" textLength="22" x="264" y="136.1367">NEIN</text><rect fill="#F1F1F1" height="51.9219" rx="12.5" ry="12.5" style="stroke:#181818;stroke-width:0.5;" width="156" x="11" y="160.8975"/><text fill="#000000" font-family="sans-serif" font-size="12" lengthAdjust="spacing" textLength="129" x="21" y="183.8467">&#220;bernehme vorl&#228;ufigen</text><text fill="#000000" font-family="sans-serif" font-size="12" lengthAdjust="spacing" textLength="136" x="21" y="199.8076">Eintrag in Berufskartei</text><rect fill="#F1F1F1" height="35.9609" rx="12.5" ry="12.5" style="stroke:#181818;stroke-width:0.5;" width="173" x="187.5" y="160.8975"/><text fill="#000000" font-family="sans-serif" font-size="12" lengthAdjust="spacing" textLength="153" x="197.5" y="183.8467">Verwerfe vorl&#228;ufigen Eintrag</text><polygon fill="#F1F1F1" points="181.5,218.8193,193.5,230.8193,181.5,242.8193,169.5,230.8193,181.5,218.8193" style="stroke:#181818;stroke-width:0.5;"/><ellipse cx="181.5" cy="273.8193" fill="none" rx="11" ry="11" style="stroke:#222222;stroke-width:1.0;"/><ellipse cx="181.5" cy="273.8193" fill="#222222" rx="6" ry="6" style="stroke:#222222;stroke-width:1.0;"/><line style="stroke:#181818;stroke-width:1.0;" x1="181.5" x2="181.5" y1="30" y2="50"/><polygon fill="#181818" points="177.5,40,181.5,50,185.5,40,181.5,44" style="stroke:#181818;stroke-width:1.0;"/><line style="stroke:#181818;stroke-width:1.0;" x1="99" x2="89" y1="138.8975" y2="138.8975"/><line style="stroke:#181818;stroke-width:1.0;" x1="89" x2="89" y1="138.8975" y2="160.8975"/><polygon fill="#181818" points="85,150.8975,89,160.8975,93,150.8975,89,154.8975" style="stroke:#181818;stroke-width:1.0;"/><line style="stroke:#181818;stroke-width:1.0;" x1="264" x2="274" y1="138.8975" y2="138.8975"/><line style="stroke:#181818;stroke-width:1.0;" x1="274" x2="274" y1="138.8975" y2="160.8975"/><polygon fill="#181818" points="270,150.8975,274,160.8975,278,150.8975,274,154.8975" style="stroke:#181818;stroke-width:1.0;"/><line style="stroke:#181818;stroke-width:1.0;" x1="89" x2="89" y1="212.8193" y2="230.8193"/><line style="stroke:#181818;stroke-width:1.0;" x1="89" x2="169.5" y1="230.8193" y2="230.8193"/><polygon fill="#181818" points="159.5,226.8193,169.5,230.8193,159.5,234.8193,163.5,230.8193" style="stroke:#181818;stroke-width:1.0;"/><line style="stroke:#181818;stroke-width:1.0;" x1="274" x2="274" y1="196.8584" y2="230.8193"/><line style="stroke:#181818;stroke-width:1.0;" x1="274" x2="193.5" y1="230.8193" y2="230.8193"/><polygon fill="#181818" points="203.5,226.8193,193.5,230.8193,203.5,234.8193,199.5,230.8193" style="stroke:#181818;stroke-width:1.0;"/><line style="stroke:#181818;stroke-width:1.0;" x1="181.5" x2="181.5" y1="101.9219" y2="126.8975"/><polygon fill="#181818" points="177.5,116.8975,181.5,126.8975,185.5,116.8975,181.5,120.8975" style="stroke:#181818;stroke-width:1.0;"/><line style="stroke:#181818;stroke-width:1.0;" x1="181.5" x2="181.5" y1="242.8193" y2="262.8193"/><polygon fill="#181818" points="177.5,252.8193,181.5,262.8193,185.5,252.8193,181.5,256.8193" style="stroke:#181818;stroke-width:1.0;"/><!--SRC=[NOynKiCm44NxFSMMJW47Y0i61XSmavJf5VnjxKHPPLQoCvEpK78CEbyCnK12K2czh_T_oiuoBHixOUYX354a7gE5wMFef5pH2gsSH5tO5HHoruXcStsgIMC6c_G-4vVp3FkRv1-GTqwLKpn67sPkZD-UFJzDdzQNb0k9tV3chqypk9BIRWl91S7SCFCHraBl2ThosKya7LURgzOkNacPHnUanSE2io_hgjV71IsdzorCuVUu7Nh9AV_RN1D20bVhvcLTFjZ0IetkDlwhhS_Lf2DAEHw-0000]--></g></svg>