<?xml version="1.0" encoding="us-ascii" standalone="no"?><svg xmlns="http://www.w3.org/2000/svg" xmlns:xlink="http://www.w3.org/1999/xlink" contentStyleType="text/css" height="486.4px" preserveAspectRatio="none" style="width:425px;height:486px;background:#FFFFFF;" version="1.1" viewBox="0 0 425 486" width="425.6px" zoomAndPan="magnify"><defs><filter height="1" id="b1kokflsy143sz0" width="1" x="0" y="0"><feFlood flood-color="#F0F4F8" result="flood"/><feComposite in="SourceGraphic" in2="flood" operator="over"/></filter><filter height="1" id="b1kokflsy143sz1" width="1" x="0" y="0"><feFlood flood-color="#FDF0E1" result="flood"/><feComposite in="SourceGraphic" in2="flood" operator="over"/></filter><filter height="1" id="b1kokflsy143sz2" width="1" x="0" y="0"><feFlood flood-color="#E3FBE3" result="flood"/><feComposite in="SourceGraphic" in2="flood" operator="over"/></filter></defs><g><ellipse cx="212.8" cy="32" fill="#222222" rx="16" ry="16" style="stroke:#222222;stroke-width:1.6000000000000003;"/><rect fill="#F1F1F1" height="57.5375" rx="20" ry="20" style="stroke:#181818;stroke-width:0.8000000000000002;" width="310.4" x="57.6" y="80"/><text fill="#000000" font-family="sans-serif" font-size="19.2" lengthAdjust="spacing" textLength="203.2" x="73.6" y="116.7188">Vorgang wird gemeldet</text><text fill="#000000" filter="url(#b1kokflsy143sz0)" font-family="sans-serif" font-size="19.2" font-weight="bold" lengthAdjust="spacing" textLength="70.4" x="281.6" y="116.7188">Entwurf</text><rect fill="#F1F1F1" height="57.5375" rx="20" ry="20" style="stroke:#181818;stroke-width:0.8000000000000002;" width="283.2" x="71.2" y="169.5375"/><text fill="#000000" font-family="sans-serif" font-size="19.2" lengthAdjust="spacing" textLength="196.8" x="87.2" y="206.2563">Vorgang wird angelegt</text><text fill="#000000" filter="url(#b1kokflsy143sz1)" font-family="sans-serif" font-size="19.2" font-weight="bold" lengthAdjust="spacing" textLength="49.6" x="288.8" y="206.2563">Offen</text><rect fill="#F1F1F1" height="57.5375" rx="20" ry="20" style="stroke:#181818;stroke-width:0.8000000000000002;" width="294.4" x="65.6" y="259.075"/><text fill="#000000" font-family="sans-serif" font-size="19.2" lengthAdjust="spacing" textLength="208" x="81.6" y="295.7938">Vorgang wird bearbeitet</text><text fill="#000000" filter="url(#b1kokflsy143sz1)" font-family="sans-serif" font-size="19.2" font-weight="bold" lengthAdjust="spacing" textLength="49.6" x="294.4" y="295.7938">Offen</text><rect fill="#F1F1F1" height="57.5375" rx="20" ry="20" style="stroke:#181818;stroke-width:0.8000000000000002;" width="390.4" x="17.6" y="348.6125"/><text fill="#000000" font-family="sans-serif" font-size="19.2" lengthAdjust="spacing" textLength="235.2" x="33.6" y="385.3313">Vorgang wird geschlossen</text><text fill="#000000" filter="url(#b1kokflsy143sz2)" font-family="sans-serif" font-size="19.2" font-weight="bold" lengthAdjust="spacing" textLength="118.4" x="273.6" y="385.3313">Geschlossen</text><ellipse cx="212.8" cy="454.15" fill="none" rx="16" ry="16" style="stroke:#222222;stroke-width:2.4000000000000004;"/><line style="stroke:#222222;stroke-width:4.000000000000001;" x1="202.9005" x2="222.6995" y1="444.2505" y2="464.0495"/><line style="stroke:#222222;stroke-width:4.000000000000001;" x1="222.6995" x2="202.9005" y1="444.2505" y2="464.0495"/><line style="stroke:#181818;stroke-width:1.6000000000000003;" x1="212.8" x2="212.8" y1="48" y2="80"/><polygon fill="#181818" points="206.4,64,212.8,80,219.2,64,212.8,70.4" style="stroke:#181818;stroke-width:1.6000000000000003;"/><line style="stroke:#181818;stroke-width:1.6000000000000003;" x1="212.8" x2="212.8" y1="137.5375" y2="169.5375"/><polygon fill="#181818" points="206.4,153.5375,212.8,169.5375,219.2,153.5375,212.8,159.9375" style="stroke:#181818;stroke-width:1.6000000000000003;"/><line style="stroke:#181818;stroke-width:1.6000000000000003;" x1="212.8" x2="212.8" y1="227.075" y2="259.075"/><polygon fill="#181818" points="206.4,243.075,212.8,259.075,219.2,243.075,212.8,249.475" style="stroke:#181818;stroke-width:1.6000000000000003;"/><line style="stroke:#181818;stroke-width:1.6000000000000003;" x1="212.8" x2="212.8" y1="316.6125" y2="348.6125"/><polygon fill="#181818" points="206.4,332.6125,212.8,348.6125,219.2,332.6125,212.8,339.0125" style="stroke:#181818;stroke-width:1.6000000000000003;"/><line style="stroke:#181818;stroke-width:1.6000000000000003;" x1="212.8" x2="212.8" y1="406.15" y2="438.15"/><polygon fill="#181818" points="206.4,422.15,212.8,438.15,219.2,422.15,212.8,428.55" style="stroke:#181818;stroke-width:1.6000000000000003;"/><!--SRC=[Aov9B2hXiWhBBqfFp4jNACyiIb58JyrDpKb9BL6mIKfCphPITZDmCt6piDFISiqhAIyjIjFIij47oTXPesa4Cb9pKjCH6btS35mDWHhzqz9Iyt1gIqfDB4fApIn99LLZUcfnSaPEVd5nQXvCfwkncvEhCL2dEq8EINzgNWe0]--></g></svg>