<?xml version="1.0" encoding="UTF-8" standalone="no"?>
<svg
   xmlns:dc="http://purl.org/dc/elements/1.1/"
   xmlns:cc="http://creativecommons.org/ns#"
   xmlns:rdf="http://www.w3.org/1999/02/22-rdf-syntax-ns#"
   xmlns:svg="http://www.w3.org/2000/svg"
   xmlns="http://www.w3.org/2000/svg"
   viewBox="0 0 779.01331 311.53333"
   height="311.53333"
   width="779.01331"
   xml:space="preserve"
   id="svg2"
   version="1.1"><metadata
     id="metadata8"><rdf:RDF><cc:Work
         rdf:about=""><dc:format>image/svg+xml</dc:format><dc:type
           rdf:resource="http://purl.org/dc/dcmitype/StillImage" /></cc:Work></rdf:RDF></metadata><defs
     id="defs6" /><g
     transform="matrix(1.3333333,0,0,-1.3333333,0,311.53333)"
     id="g10"><g
       transform="scale(0.1)"
       id="g12"><path
         id="path14"
         style="fill:#80cc28;fill-opacity:1;fill-rule:nonzero;stroke:none"
         d="m 0,769.09 c 0,257.47 135.137,483.74 337.922,611.15 v 0 c 49.781,31.4 115.672,16.44 147.098,-33.4 v 0 c 31.457,-49.9 16.503,-115.79 -33.399,-147.27 v 0 C 308.484,1109.21 213.555,950.57 213.555,769.09 v 0 C 213.652,628.27 270.273,501.73 362.52,409.359 v 0 C 454.941,317.18 581.355,260.648 722.051,260.461 v 0 c 140.683,0.187 267.121,56.719 359.589,148.898 v 0 c 92.12,92.371 148.89,218.911 148.89,359.731 v 0 c 0.15,182.91 -96.31,342.56 -241.358,432.56 v 0 c -50,31.08 -65.551,96.88 -34.504,147.02 v 0 c 31.133,50.1 96.852,65.54 146.972,34.65 v 0 C 1307.02,1256.2 1444.1,1028.37 1444.1,769.09 v 0 C 1444.1,370.16 1120.89,47.0898 722.051,46.9492 v 0 C 323.293,47.0898 0.0976563,370.16 0,769.09 v 0" /><path
         id="path16"
         style="fill:#80cc28;fill-opacity:1;fill-rule:nonzero;stroke:none"
         d="M 959.766,1790.13 C 797.988,1649.64 758.281,1553.02 758.281,1553.02 c 15.235,153.66 92.586,206.12 168.809,282.61 118.03,118.26 121.79,324.3 121.79,324.3 0,0 57.47,-242.57 -89.114,-369.8 z m 63.454,546.33 c 0,0 0.71,-188.01 -231.716,-378.8 -229.758,-188.41 -175.996,-638 -175.996,-638 -0.481,-68.31 0.515,-544.93 0.515,-544.93 0,-58.91 47.942,-106.761 106.868,-106.761 58.964,0 106.726,47.851 106.726,106.761 l -0.547,435.13 c 10.832,331.47 175.1,336.82 300.68,505.58 244.11,327.86 -106.53,621.02 -106.53,621.02" /><path
         id="path18"
         style="fill:#80cc28;fill-opacity:1;fill-rule:nonzero;stroke:none"
         d="m 1175.74,1576.09 c 0,0 169.84,103.75 367.75,-75.45 0,0 -165.93,101.88 -367.75,75.45 z m 168.26,80 c -216.43,44.84 -398.094,-179.26 -398.094,-179.26 0,0 112.754,67.08 316.924,-47.67 225.63,-126.53 356.31,64.75 356.31,64.75 0,0 -109.85,128.02 -275.14,162.18" /><path
         id="path20"
         style="fill:#b2e073;fill-opacity:1;fill-rule:nonzero;stroke:none"
         d="m 5017.42,852.891 c -83.36,23.57 -172.01,-152.071 -195.53,-277.879 l -19,-101.453 h -79.71 l 45.4,234.492 c 13.45,72.429 26.14,143.91 39.74,215.488 h 77.82 c -7.28,-38.961 -19.9,-86.93 -46.12,-165.629 l 1.79,-0.988 c 50.67,109.539 105.04,189.289 191.9,174.738 l -16.29,-78.769" /><path
         id="path22"
         style="fill:#b2e073;fill-opacity:1;fill-rule:nonzero;stroke:none"
         d="m 5221.09,870.078 c -71.47,0 -119.4,-62.379 -140.29,-138.519 139.36,5.461 200.99,33.519 200.99,87.882 0,32.52 -24.49,50.637 -60.7,50.637 z M 5070.8,671.84 c -2.67,-12.692 -4.47,-36.238 -4.47,-52.488 0,-69.692 24.47,-87.864 96.83,-87.864 42.59,0 87.77,9.961 125.84,26.282 l 2.7,-64.25 c -45.22,-18.161 -97.74,-28.071 -156.55,-28.071 -103.16,0 -151.24,44.313 -151.24,145.731 0,174.742 97.82,320.48 246.25,320.48 95.97,0 132.16,-48.871 132.16,-102.281 0,-102.309 -110.41,-151.199 -291.52,-157.539" /><path
         id="path24"
         style="fill:#b2e073;fill-opacity:1;fill-rule:nonzero;stroke:none"
         d="m 5521.72,1013.14 c -30.83,0 -51.57,22.67 -51.57,49.8 0,32.57 26.24,56.14 56.03,56.14 29.94,0 50.73,-23.57 50.73,-49.81 0,-32.61 -26.22,-56.13 -55.19,-56.13 z m -71.53,-539.581 h -79.72 l 86.01,449.98 h 79.71 l -86,-449.98" /><path
         id="path26"
         style="fill:#b2e073;fill-opacity:1;fill-rule:nonzero;stroke:none"
         d="m 5825.85,859.281 c -21.75,7.18 -45.26,9.899 -67.92,9.899 -58.85,0 -89.65,-27.121 -89.65,-65.141 0,-71.527 136.75,-90.59 136.75,-192.008 0,-75.101 -66.05,-146.582 -193.67,-146.582 -30,0 -54.34,1.742 -77.03,6.332 l 14.58,73.27 c 23.45,-8.121 47.94,-12.621 73.21,-12.621 58.89,0 98.69,23.519 98.69,70.601 0,71.571 -135.78,83.278 -135.78,191.949 0,76.891 61.6,136.68 178.37,136.68 31.72,0 54.24,-2.68 76.96,-6.351 l -14.51,-66.028" /><path
         id="path28"
         style="fill:#80cc28;fill-opacity:1;fill-rule:nonzero;stroke:none"
         d="m 1811.82,866.461 c -134.07,0 -186.54,-138.461 -186.54,-249.883 0,-58.808 18.12,-82.367 46.13,-82.367 85.14,0 177.47,180.23 198.32,287.937 l 6.27,36.141 c -18.11,4.57 -38.89,8.172 -64.18,8.172 z m 101.36,-230.859 c -11.81,-62.442 -23.55,-124.961 -29.82,-162.043 h -79.77 c 7.27,38.972 24.46,98.671 51.68,182.921 l -1.89,0.899 C 1820.83,587.672 1752.85,464.52 1643.4,464.52 c -65.2,0 -100.45,41.66 -100.45,136.71 0,165.692 85.94,329.532 282.37,329.532 22.64,0 40.74,-1.782 63.37,-5.453 l 38.95,209.111 h 80.54 l -95,-498.818" /><path
         id="path30"
         style="fill:#80cc28;fill-opacity:1;fill-rule:nonzero;stroke:none"
         d="m 2224.55,870.078 c -71.53,0 -119.44,-62.379 -140.27,-138.519 139.44,5.461 200.97,33.519 200.97,87.882 0,32.52 -24.44,50.637 -60.7,50.637 z M 2074.33,671.84 c -2.78,-13.629 -4.51,-36.238 -4.51,-52.488 0,-69.692 24.35,-87.864 96.83,-87.864 42.57,0 87.81,9.961 126.79,26.282 v -65.141 c -43.52,-17.27 -96.01,-27.18 -154.92,-27.18 -103.09,0 -151.18,44.313 -151.18,145.731 0,174.742 96.94,320.48 246.33,320.48 95.89,0 132.12,-48.871 132.12,-102.281 0,-96.867 -98.55,-150.309 -291.46,-157.539" /><path
         id="path32"
         style="fill:#80cc28;fill-opacity:1;fill-rule:nonzero;stroke:none"
         d="m 2733.35,473.559 h -79.6 l 55.16,287.902 c 13.61,70.598 0.9,101.398 -39.86,101.398 -83.19,0 -175.53,-176.55 -196.37,-287.847 l -19.12,-101.453 h -79.6 l 45.25,235.429 c 11.79,64.301 28.08,148.403 39.8,214.551 h 78.82 c -5.4,-29.898 -18.12,-81.48 -49.76,-177.418 h 1.77 c 42.59,95.039 114.03,186.43 208.23,186.43 83.27,0 111.3,-58.821 94.1,-152.973 l -58.82,-306.019" /><path
         id="path34"
         style="fill:#80cc28;fill-opacity:1;fill-rule:nonzero;stroke:none"
         d="m 3300.01,473.559 h -91.47 l -35.3,255.339 c -3.55,28.024 -6.3,58.801 -7.22,90.543 h -0.9 L 2994.86,473.559 h -87.75 l -49.73,449.98 h 85.04 l 21.76,-240 c 3.63,-41.559 7.18,-82.309 7.18,-112.219 h 0.89 l 172.05,352.219 h 84.08 l 32.69,-239.008 c 4.54,-32.652 9.01,-85.179 9.98,-114.082 h 0.9 l 175.59,371.11 75.21,-24.36 -222.74,-443.64" /><path
         id="path36"
         style="fill:#80cc28;fill-opacity:1;fill-rule:nonzero;stroke:none"
         d="m 3758.17,866.461 c -133.98,0 -186.48,-138.461 -186.48,-249.883 0,-58.808 18.09,-82.367 46.12,-82.367 85.12,0 177.47,180.23 198.27,287.937 l 6.34,36.141 c -18.12,4.57 -38.95,8.172 -64.25,8.172 z m 71.5,-392.902 h -80.61 c 8.19,38.972 25.4,98.671 52.46,182.921 l -1.75,0.899 c -32.6,-69.707 -100.51,-192.859 -209.99,-192.859 -65.22,0 -100.51,41.66 -100.51,136.71 0,165.692 86.02,329.532 282.48,329.532 51.56,0 99.55,-5.453 141.17,-13.563 -47.91,-251.699 -64.31,-335.871 -83.25,-443.64" /><path
         id="path38"
         style="fill:#80cc28;fill-opacity:1;fill-rule:nonzero;stroke:none"
         d="m 3991.04,473.559 h -79.61 l 125.73,660.861 h 79.72 L 3991.04,473.559" /><path
         id="path40"
         style="fill:#80cc28;fill-opacity:1;fill-rule:nonzero;stroke:none"
         d="m 4348.4,866.461 c -133.96,0 -186.47,-138.461 -186.47,-249.883 0,-58.808 18.05,-82.367 46.13,-82.367 85.1,0 177.41,180.23 198.26,287.937 l 6.39,36.141 c -18.24,4.57 -38.97,8.172 -64.31,8.172 z m 101.34,-230.859 c -11.76,-62.442 -23.52,-124.961 -29.8,-162.043 h -79.63 c 7.13,38.972 24.39,98.671 51.55,182.921 l -1.82,0.899 c -32.6,-69.707 -100.51,-192.859 -210.06,-192.859 -65.15,0 -100.46,41.66 -100.46,136.71 0,165.692 86.02,329.532 282.38,329.532 22.67,0 40.76,-1.782 63.43,-5.453 l 38.92,209.111 h 80.63 l -95.14,-498.818" /><path
         id="path42"
         style="fill:#b2e073;fill-opacity:1;fill-rule:nonzero;stroke:none"
         d="m 4736.76,899.98 -58.81,46.231 -210,-212.813 -3.6,-20.839 118.55,-239 h 97.76 l -135.78,247.211 191.88,179.21" /><path
         id="path44"
         style="fill:#80cc28;fill-opacity:1;fill-rule:nonzero;stroke:none"
         d="m 2841.01,85.7109 h -51.09 l -44.57,115.5511 c -6.51,17.136 -12,34.968 -15.77,50.398 -2.74,-21.601 -6.17,-43.199 -10.63,-66.172 l -18.86,-99.7771 h -42.51 l 43.88,231.4371 h 51.77 l 43.21,-109.378 c 7.19,-18.168 12.68,-37.372 17.49,-54.86 2.74,21.262 6.85,46.969 10.96,68.57 l 17.49,95.668 h 42.85 L 2841.01,85.7109" /><path
         id="path46"
         style="fill:#80cc28;fill-opacity:1;fill-rule:nonzero;stroke:none"
         d="m 2991.13,224.91 c -39.43,0 -57.6,-45.941 -57.6,-81.601 0,-16.797 4.46,-23.649 13.03,-23.649 24.34,0 54.86,55.891 61.71,91.879 l 2.06,10.981 c -5.49,1.371 -11.66,2.39 -19.2,2.39 z m 36.68,-139.1991 h -42.51 c 3.09,13.3672 8.24,30.5191 16.12,54.1681 h -0.69 c -13.72,-25.027 -37.37,-57.9376 -71.32,-57.9376 -26.05,0 -40.11,16.7969 -40.11,53.1486 0,64.449 34.63,124.109 109.37,124.109 20.58,0 41.14,-1.371 60.34,-5.14 -15.07,-79.207 -23.99,-123.43 -31.2,-168.3481" /><path
         id="path48"
         style="fill:#80cc28;fill-opacity:1;fill-rule:nonzero;stroke:none"
         d="m 3199.55,217.371 c -7.54,3.43 -16.11,5.149 -26.4,5.149 -35.66,0 -52.11,-39.782 -52.11,-71.661 0,-16.109 6.85,-30.179 30.17,-30.179 10.97,0 22.63,2.41 31.89,6.519 l -3.77,-38.0584 c -11.66,-4.1093 -26.07,-6.8515 -40.8,-6.8515 -45.61,0 -63.1,23.3129 -63.1,58.9729 0,65.148 38.41,118.277 100.46,118.277 12.34,0 23.32,-1.711 33.94,-4.449 l -10.28,-37.719" /><path
         id="path50"
         style="fill:#80cc28;fill-opacity:1;fill-rule:nonzero;stroke:none"
         d="m 3357.24,85.7109 h -43.21 l 20.58,106.9801 c 4.11,20.911 0.68,29.489 -10.28,29.489 -22.98,0 -53.84,-53.5 -61.38,-93.258 l -8.23,-43.2111 h -42.85 l 47.65,250.3011 h 42.86 L 3289,264 c -3.08,-15.078 -8.22,-32.219 -18.51,-60.68 l 0.69,-0.351 c 15.43,30.519 39.08,56.922 71.66,56.922 32.91,0 42.85,-23.321 36.68,-56.571 L 3357.24,85.7109" /><path
         id="path52"
         style="fill:#80cc28;fill-opacity:1;fill-rule:nonzero;stroke:none"
         d="m 3548.85,85.7109 h -43.21 l 20.58,106.9801 c 4.11,20.911 0.68,29.489 -10.28,29.489 -22.98,0 -53.84,-53.5 -61.38,-93.258 l -8.23,-43.2111 h -42.85 l 47.65,250.3011 h 42.86 L 3480.62,264 c -3.09,-15.078 -8.23,-32.219 -18.52,-60.68 l 0.69,-0.351 c 15.43,30.519 39.09,56.922 71.66,56.922 32.91,0 42.85,-23.321 36.68,-56.571 L 3548.85,85.7109" /><path
         id="path54"
         style="fill:#80cc28;fill-opacity:1;fill-rule:nonzero;stroke:none"
         d="m 3698.64,224.91 c -39.43,0 -57.6,-45.941 -57.6,-81.601 0,-16.797 4.46,-23.649 13.03,-23.649 24.34,0 54.86,55.891 61.71,91.879 l 2.06,10.981 c -5.49,1.371 -11.66,2.39 -19.2,2.39 z m 36.68,-139.1991 h -42.51 c 3.09,13.3672 8.23,30.5191 16.12,54.1681 h -0.69 c -13.72,-25.027 -37.37,-57.9376 -71.32,-57.9376 -26.05,0 -40.11,16.7969 -40.11,53.1486 0,64.449 34.63,124.109 109.37,124.109 20.58,0 41.14,-1.371 60.34,-5.14 -15.07,-79.207 -23.99,-123.43 -31.2,-168.3481" /><path
         id="path56"
         style="fill:#80cc28;fill-opacity:1;fill-rule:nonzero;stroke:none"
         d="m 3823.74,85.7109 h -42.85 l 47.65,250.3011 h 42.87 L 3823.74,85.7109" /><path
         id="path58"
         style="fill:#80cc28;fill-opacity:1;fill-rule:nonzero;stroke:none"
         d="m 3986.92,222.18 h -40.11 l -14.4,-76.809 c -3.78,-20.582 -1.03,-26.051 13.03,-26.051 8.56,0 15.09,1.02 21.25,2.391 l -4.11,-34.9727 c -11.31,-2.75 -24.35,-4.4492 -34.97,-4.4492 -36.69,0 -46.98,17.4804 -39.08,58.2809 l 15.42,81.61 h -29.15 l 6.86,33.929 h 28.81 l 9.94,52.461 44.57,8.918 -11.66,-61.379 h 40.46 l -6.86,-33.929" /><path
         id="path60"
         style="fill:#80cc28;fill-opacity:1;fill-rule:nonzero;stroke:none"
         d="m 4057.52,278.059 c -15.08,0 -25.71,12 -25.37,25.371 0.34,15.769 14.06,27.769 29.15,27.769 14.74,0 25.71,-11.648 25.37,-24.687 -0.34,-16.453 -14.06,-28.453 -29.15,-28.453 z M 4039,85.7109 h -42.85 l 32.57,170.3981 h 42.86 L 4039,85.7109" /><path
         id="path62"
         style="fill:#80cc28;fill-opacity:1;fill-rule:nonzero;stroke:none"
         d="m 4189.5,224.91 c -39.43,0 -57.61,-45.941 -57.61,-81.601 0,-16.797 4.47,-23.649 13.04,-23.649 24.34,0 54.86,55.891 61.71,91.879 l 2.06,10.981 c -5.49,1.371 -11.66,2.39 -19.2,2.39 z M 4223.1,75.0898 C 4214.19,28.1211 4184.36,0 4117.84,0 c -19.2,0 -36,2.73828 -49.37,7.19922 l 9.94,40.10938 c 13.72,-6.5078 31.2,-9.9375 46.97,-9.9375 32.24,0 50.75,12.3477 56.57,42.8477 3.78,19.5507 7.89,31.8902 17.49,58.6402 l -0.68,0.34 c -13.38,-24.347 -37.03,-57.2576 -70.98,-57.2576 -26.05,0 -40.11,16.7969 -40.11,53.1486 0,64.449 34.62,124.109 109.37,124.109 20.58,0 41.14,-1.371 60.34,-5.14 L 4223.1,75.0898" /><path
         id="path64"
         style="fill:#80cc28;fill-opacity:1;fill-rule:nonzero;stroke:none"
         d="m 4302.2,81.6016 c -15.09,0 -26.75,12.6875 -26.75,27.4184 0,16.128 13.37,28.808 28.46,28.808 15.43,0 27.09,-12.68 27.09,-27.43 0,-16.1089 -13.37,-28.7964 -28.8,-28.7964" /><path
         id="path66"
         style="fill:#80cc28;fill-opacity:1;fill-rule:nonzero;stroke:none"
         d="m 4468.78,85.7109 h -43.89 l 43.89,231.4371 h 43.89 L 4468.78,85.7109" /><path
         id="path68"
         style="fill:#80cc28;fill-opacity:1;fill-rule:nonzero;stroke:none"
         d="m 4660.76,85.7109 h -43.2 l 20.57,106.9801 c 4.12,20.911 0.69,29.489 -10.28,29.489 -22.98,0 -53.84,-53.5 -61.38,-93.258 l -8.23,-43.2111 h -42.85 l 17.14,89.1411 c 5.49,27.437 10.98,57.609 14.75,81.257 h 42.16 c -2.05,-10.281 -6.17,-26.05 -15.43,-52.789 l 0.7,-0.351 c 15.43,30.519 39.08,56.922 71.66,56.922 32.91,0 42.85,-23.321 36.68,-56.571 L 4660.76,85.7109" /><path
         id="path70"
         style="fill:#80cc28;fill-opacity:1;fill-rule:nonzero;stroke:none"
         d="m 4852.37,85.7109 h -43.2 l 20.58,106.9801 c 4.11,20.911 0.68,29.489 -10.29,29.489 -22.98,0 -53.83,-53.5 -61.37,-93.258 l -8.24,-43.2111 H 4707 l 17.14,89.1411 c 5.49,27.437 10.98,57.609 14.75,81.257 h 42.16 c -2.05,-10.281 -6.17,-26.05 -15.42,-52.789 l 0.69,-0.351 c 15.43,30.519 39.08,56.922 71.66,56.922 32.91,0 42.85,-23.321 36.68,-56.571 L 4852.37,85.7109" /><path
         id="path72"
         style="fill:#80cc28;fill-opacity:1;fill-rule:nonzero;stroke:none"
         d="m 4996.68,222.18 c -31.89,0 -51.08,-38.071 -51.08,-72 0,-18.52 7.53,-30.18 27.42,-30.18 30.52,0 51.77,33.949 51.77,72 0,19.539 -8.23,30.18 -28.11,30.18 z M 4967.2,82.2891 c -47.67,0 -66.53,22.6209 -66.53,61.0199 0,71.32 47.67,116.23 102.52,116.23 48.69,0 66.86,-26.051 66.86,-62.051 0,-70.289 -49.37,-115.1989 -102.85,-115.1989" /><path
         id="path74"
         style="fill:#80cc28;fill-opacity:1;fill-rule:nonzero;stroke:none"
         d="m 5166.71,85.7109 h -45.26 L 5092.3,256.109 h 45.61 l 11.31,-74.05 c 2.06,-13.379 3.43,-27.43 4.12,-40.457 h 0.68 l 60,122.058 41.83,-12.68 -89.14,-165.2691" /><path
         id="path76"
         style="fill:#80cc28;fill-opacity:1;fill-rule:nonzero;stroke:none"
         d="m 5349.01,224.91 c -39.43,0 -57.6,-45.941 -57.6,-81.601 0,-16.797 4.46,-23.649 13.03,-23.649 24.34,0 54.86,55.891 61.71,91.879 l 2.06,10.981 c -5.49,1.371 -11.66,2.39 -19.2,2.39 z m 36.68,-139.1991 h -42.51 c 3.09,13.3672 8.24,30.5191 16.12,54.1681 h -0.69 c -13.72,-25.027 -37.37,-57.9376 -71.32,-57.9376 -26.05,0 -40.11,16.7969 -40.11,53.1486 0,64.449 34.63,124.109 109.37,124.109 20.58,0 41.15,-1.371 60.34,-5.14 -15.07,-79.207 -23.99,-123.43 -31.2,-168.3481" /><path
         id="path78"
         style="fill:#80cc28;fill-opacity:1;fill-rule:nonzero;stroke:none"
         d="m 5544.4,222.18 h -40.11 l -14.4,-76.809 c -3.78,-20.582 -1.03,-26.051 13.03,-26.051 8.56,0 15.09,1.02 21.25,2.391 l -4.11,-34.9727 c -11.31,-2.75 -24.35,-4.4492 -34.97,-4.4492 -36.69,0 -46.97,17.4804 -39.08,58.2809 l 15.42,81.61 h -29.14 l 6.85,33.929 h 28.81 l 9.94,52.461 44.57,8.918 -11.66,-61.379 h 40.46 l -6.86,-33.929" /><path
         id="path80"
         style="fill:#80cc28;fill-opacity:1;fill-rule:nonzero;stroke:none"
         d="m 5615,278.059 c -15.08,0 -25.71,12 -25.37,25.371 0.34,15.769 14.06,27.769 29.15,27.769 14.74,0 25.71,-11.648 25.37,-24.687 -0.34,-16.453 -14.06,-28.453 -29.15,-28.453 z M 5596.48,85.7109 h -42.85 l 32.57,170.3981 h 42.86 L 5596.48,85.7109" /><path
         id="path82"
         style="fill:#80cc28;fill-opacity:1;fill-rule:nonzero;stroke:none"
         d="m 5728.47,85.7109 h -45.27 l -29.14,170.3981 h 45.61 l 11.31,-74.05 c 2.06,-13.379 3.42,-27.43 4.12,-40.457 h 0.68 l 60,122.058 41.83,-12.68 -89.14,-165.2691" /><path
         id="path84"
         style="fill:#80cc28;fill-opacity:1;fill-rule:nonzero;stroke:none"
         d="m 5813.77,81.6016 c -15.09,0 -26.75,12.6875 -26.75,27.4184 0,16.128 13.37,28.808 28.46,28.808 15.43,0 27.09,-12.68 27.09,-27.43 0,-16.1089 -13.37,-28.7964 -28.8,-28.7964" /></g></g></svg>